<?xml version="1.0" standalone="no"?>
<!DOCTYPE svg PUBLIC "-//W3C//DTD SVG 20010904//EN"
 "http://www.w3.org/TR/2001/REC-SVG-20010904/DTD/svg10.dtd">
<svg version="1.0" xmlns="http://www.w3.org/2000/svg"
 width="300.000000pt" height="310.000000pt" viewBox="0 0 300.000000 310.000000"
 preserveAspectRatio="xMidYMid meet">

<g transform="translate(0.000000,310.000000) scale(0.100000,-0.100000)" fill="white" stroke="white">
  
<path d="M1630 2085 c-94 -30 -164 -129 -194 -271 -39 -184 -98 -557 -99 -624
-3 -168 90 -266 293 -310 48 -11 95 -22 104 -26 9 -3 46 -48 82 -100 36 -52
69 -92 73 -90 4 3 11 35 14 71 4 36 9 70 12 75 9 14 47 12 169 -10 194 -35
283 -22 367 57 80 75 85 89 149 453 38 219 60 365 60 410 0 67 -27 132 -72
177 -78 76 -149 97 -565 168 -192 33 -333 40 -393 20z m475 -124 c127 -23 257
-48 290 -57 77 -20 133 -56 151 -99 29 -71 15 -232 -56 -603 -51 -274 -94
-332 -248 -332 -80 0 -587 87 -674 116 -60 20 -124 83 -139 137 -12 46 -9 78
32 332 41 251 78 433 93 464 54 104 162 112 551 42z"/>
<path d="M1599 1534 c-22 -27 -16 -147 11 -219 68 -180 197 -276 375 -278 165
-2 311 82 376 218 47 98 51 167 9 180 -32 10 -56 -11 -81 -72 -42 -106 -78
-151 -154 -191 -42 -22 -63 -27 -130 -27 -94 0 -157 24 -218 83 -58 55 -77
101 -90 215 l-12 102 -36 3 c-24 2 -40 -2 -50 -14z"/>
<path d="M880 1904 c-69 -13 -193 -38 -276 -54 -245 -47 -312 -82 -367 -192
-21 -42 -27 -67 -27 -121 0 -87 82 -577 115 -682 40 -133 99 -202 199 -235 54
-17 239 -7 336 19 41 11 79 16 83 12 5 -5 12 -39 17 -76 5 -36 11 -69 14 -72
10 -11 39 24 91 106 48 77 52 80 95 86 81 12 194 45 245 73 39 21 50 32 50 52
0 37 -52 49 -98 22 -19 -11 -63 -27 -98 -35 -120 -30 -524 -99 -611 -104 -76
-5 -92 -3 -133 17 -86 42 -99 76 -166 445 -51 278 -59 433 -24 482 48 65 189
106 585 169 255 40 325 31 376 -45 15 -23 30 -41 34 -41 5 0 11 23 15 50 9 63
-5 86 -71 120 -71 36 -213 38 -384 4z"/>
<path d="M1196 1381 c-11 -12 -21 -48 -27 -93 -14 -111 -19 -129 -51 -180 -74
-117 -229 -168 -360 -118 -88 34 -144 95 -178 195 -11 33 -26 63 -33 67 -21
13 -65 9 -71 -8 -24 -62 15 -162 100 -253 189 -205 519 -159 655 92 33 59 34
66 34 168 0 91 -3 110 -19 128 -23 26 -28 26 -50 2z"/>
</g>
</svg>
