<?xml version="1.0" standalone="no"?>
<!DOCTYPE svg PUBLIC "-//W3C//DTD SVG 20010904//EN"
 "http://www.w3.org/TR/2001/REC-SVG-20010904/DTD/svg10.dtd">
<svg version="1.0" xmlns="http://www.w3.org/2000/svg"
 width="826.000000pt" height="826.000000pt" viewBox="0 0 826.000000 826.000000"
 preserveAspectRatio="xMidYMid meet">
<metadata>
Created by potrace 1.14, written by Peter Selinger 2001-2017
</metadata>
<g transform="translate(0.000000,826.000000) scale(0.100000,-0.100000)"
fill="#000000" stroke="none">
<path d="M140 4130 l0 -4130 3995 0 3995 0 0 4130 0 4130 -3995 0 -3995 0 0
-4130z m4870 1975 c197 -17 358 -40 705 -100 563 -98 883 -170 1039 -235 242
-101 393 -264 451 -490 41 -156 3 -465 -185 -1515 -108 -608 -151 -739 -283
-881 -126 -135 -259 -218 -405 -250 -124 -28 -394 -15 -652 31 -113 20 -253
39 -311 42 -105 6 -107 5 -122 -18 -9 -14 -24 -93 -36 -188 -12 -90 -26 -172
-32 -183 -10 -18 -12 -19 -29 -3 -20 18 -74 88 -223 290 -145 197 -148 200
-303 236 -438 103 -587 170 -742 333 -148 156 -204 367 -173 646 54 484 232
1509 296 1704 107 328 304 537 546 581 99 18 259 18 459 0z m-1645 -459 c139
-32 279 -117 316 -192 19 -40 21 -57 16 -137 -5 -94 -24 -173 -42 -171 -6 0
-29 25 -53 55 -84 107 -125 150 -166 174 -156 92 -485 71 -1351 -87 -762 -138
-1054 -254 -1110 -439 -57 -194 -19 -594 136 -1424 140 -751 186 -863 394
-968 114 -57 189 -66 386 -47 392 40 1438 224 1679 297 46 14 123 42 170 63
112 51 149 57 206 35 84 -32 94 -105 24 -169 -95 -85 -395 -191 -698 -245 -62
-11 -127 -29 -144 -38 -20 -12 -73 -83 -153 -203 -135 -202 -197 -280 -225
-280 -24 0 -24 3 -55 192 -14 86 -30 169 -35 184 -10 26 -13 26 -63 21 -28 -4
-110 -20 -182 -36 -208 -47 -373 -65 -615 -65 -209 -1 -217 0 -288 26 -281
102 -444 331 -546 768 -49 209 -149 762 -206 1140 -81 536 -80 658 6 839 137
292 318 392 934 515 481 96 907 177 1010 190 63 9 129 18 145 20 75 10 443 -3
510 -18z m77 -1423 c58 -60 61 -76 66 -315 5 -270 -4 -330 -65 -447 -153 -291
-368 -480 -653 -575 -401 -134 -826 -23 -1119 291 -81 86 -188 240 -225 325
-75 170 -75 350 1 379 15 6 52 9 82 6 73 -5 92 -29 158 -199 70 -177 112 -247
208 -344 68 -68 97 -89 185 -133 170 -84 318 -107 495 -76 236 41 439 178 555
374 57 95 84 187 110 371 33 237 52 299 105 353 37 36 54 34 97 -10z"/>
<path d="M4670 5873 c-200 -19 -324 -92 -385 -226 -13 -29 -38 -110 -55 -180
-81 -345 -258 -1376 -291 -1704 -15 -148 -4 -227 44 -316 63 -118 213 -245
340 -286 219 -71 1399 -278 1742 -306 99 -8 236 8 311 37 109 42 197 148 264
317 37 95 88 308 144 606 170 898 209 1325 136 1517 -49 132 -226 238 -490
293 -842 177 -1517 272 -1760 248z m-45 -1225 c3 -2 14 -83 25 -179 47 -396
95 -521 257 -669 172 -158 318 -210 587 -210 167 0 226 13 339 73 163 87 256
188 343 373 110 235 125 263 159 293 28 24 45 31 78 31 111 0 144 -104 91
-286 -108 -377 -369 -632 -755 -740 -79 -22 -121 -27 -259 -31 -188 -6 -268 3
-403 47 -265 85 -477 285 -613 575 -23 49 -51 120 -63 157 -32 106 -54 280
-48 383 10 168 39 199 175 192 46 -3 85 -7 87 -9z"/>
</g>
</svg>
